<svg width="21" height="21" viewBox="0 0 21 21" fill="none" xmlns="http://www.w3.org/2000/svg">
<path d="M9.2481 20.0002H3.4151C2.26459 19.9991 1.3322 19.0667 1.3311 17.9162V8.21616C0.51431 7.63654 0.260002 6.53768 0.739099 5.65816C1.6391 4.05016 2.5571 2.46516 3.4601 0.946156C3.82226 0.353155 4.46928 -0.00604409 5.1641 7.69986e-05C5.58762 0.00437969 5.99958 0.138792 6.3441 0.385156L6.3681 0.400156C6.7801 0.640156 10.7601 3.00916 13.9591 4.91216L16.7981 6.60016L16.9281 6.67716C19.1461 7.98816 19.6451 8.28616 19.6731 8.30516C20.4896 8.88326 20.7407 9.98293 20.2561 10.8582C19.3731 12.4352 18.4561 14.0202 17.5351 15.5702C17.1776 16.1567 16.542 16.5165 15.8551 16.5212C15.7205 16.5212 15.5863 16.5061 15.4551 16.4762C15.3391 16.5452 14.6991 16.9562 13.8881 17.4762C12.4451 18.4012 10.4731 19.6662 10.2451 19.7832C9.93748 19.9415 9.59369 20.0163 9.2481 20.0002ZM2.9981 11.0302V17.9162C2.9981 18.1465 3.1848 18.3332 3.4151 18.3332H7.2381C5.7851 15.8802 4.3591 13.4222 2.9981 11.0302ZM4.3561 10.0302C4.7561 10.7172 9.0721 18.1622 9.1081 18.2122C9.16495 18.286 9.2529 18.3292 9.3461 18.3292C9.39526 18.3292 9.44368 18.3172 9.4871 18.2942C9.6221 18.2182 13.6811 15.6102 13.7211 15.5842C13.4071 15.3992 11.1351 14.0452 8.7291 12.6122L4.3361 10.0002L4.3431 10.0112L4.3531 10.0282V10.0342L4.3561 10.0302ZM4.8301 1.90016C4.0221 3.20016 2.2141 6.42816 2.1901 6.48716C2.13081 6.62881 2.18341 6.79254 2.3141 6.87316C2.4471 6.95216 15.6681 14.8292 15.7941 14.8492C15.8101 14.8503 15.8261 14.8503 15.8421 14.8492C15.9507 14.8495 16.0517 14.793 16.1081 14.7002C16.9221 13.3332 18.7971 10.0432 18.8021 10.0332C18.86 9.89092 18.8073 9.72764 18.6771 9.64616C18.5501 9.57016 5.3541 1.72816 5.2691 1.69116C5.23047 1.67489 5.18901 1.66639 5.1471 1.66616C5.04179 1.66673 4.94378 1.72005 4.8861 1.80816L4.8791 1.82016L4.8711 1.83216L4.8591 1.85216V1.85716L4.8441 1.88116L4.8291 1.90016H4.8301ZM6.1831 7.39016C5.26364 7.3896 4.51847 6.64427 4.5181 5.72482C4.51774 4.80536 5.26232 4.05944 6.18177 4.05816C7.10123 4.05687 7.84789 4.8007 7.8501 5.72016C7.849 6.64036 7.1033 7.38605 6.1831 7.38716V7.39016Z" fill="#A7A7A7"/>
</svg>
