<svg width="29" height="28" viewBox="0 0 29 28" fill="none" xmlns="http://www.w3.org/2000/svg">
<path d="M6.6421 5.99989L8.50913 18.1356C8.52271 18.2357 8.55113 18.3312 8.5921 18.4197C8.71543 18.6859 8.95246 18.8888 9.24088 18.966C9.32899 18.9897 9.42133 19.0015 9.51578 18.9999H20.5C20.9416 18.9999 21.3309 18.7102 21.4578 18.2872L24.4578 8.28724C24.5487 7.98447 24.491 7.65657 24.3023 7.40296C24.1136 7.14935 23.8161 6.99989 23.5 6.99989H8.81948L8.49058 4.86209C8.47826 4.7727 8.45413 4.68709 8.41981 4.60687C8.35751 4.4608 8.26213 4.33426 8.14429 4.23508C8.03497 4.14289 7.90561 4.07372 7.76367 4.03502C7.67434 4.01056 7.5806 3.9983 7.4847 3.99989H5.5C4.94772 3.99989 4.5 4.44761 4.5 4.99989C4.5 5.55218 4.94772 5.99989 5.5 5.99989H6.6421ZM10.3579 16.9999L9.12717 8.99989H22.156L19.756 16.9999H10.3579Z" fill="#A7A7A7"/>
<path d="M12.5 21.9999C12.5 23.1045 11.6046 23.9999 10.5 23.9999C9.39543 23.9999 8.5 23.1045 8.5 21.9999C8.5 20.8953 9.39543 19.9999 10.5 19.9999C11.6046 19.9999 12.5 20.8953 12.5 21.9999Z" fill="#A7A7A7"/>
<path d="M21.5 21.9999C21.5 23.1045 20.6046 23.9999 19.5 23.9999C18.3954 23.9999 17.5 23.1045 17.5 21.9999C17.5 20.8953 18.3954 19.9999 19.5 19.9999C20.6046 19.9999 21.5 20.8953 21.5 21.9999Z" fill="#A7A7A7"/>
</svg>
